<?xml version="1.0" encoding="UTF-8" standalone="no"?>
<svg xmlns:dc="http://purl.org/dc/elements/1.1/" xmlns:cc="http://creativecommons.org/ns#" xmlns:rdf="http://www.w3.org/1999/02/22-rdf-syntax-ns#" xmlns:svg="http://www.w3.org/2000/svg" xmlns="http://www.w3.org/2000/svg" width="148mm" height="70mm" viewBox="0 0 148 70" id="svg8">
  <defs id="defs2"></defs>
  <metadata id="metadata5"></metadata>
  <g id="layer1" transform="translate(0,-209.5)">
    <g aria-label="RxTx" id="text12" style="font-style:normal;font-weight:normal;font-size:38.1px;line-height:1.25;font-family:sans-serif;letter-spacing:0px;word-spacing:0px;fill:#d52b1e;fill-opacity:1;stroke:none;stroke-width:0.264583">
      <path d="m 85.784582,256.33005 q 0.381,0.6096 0.381,1.2573 0,0.762 -0.5334,1.2954 -0.4953,0.4953 -1.3716,0.4953 -1.1049,0 -1.7145,-0.9525 l -6.5532,-10.5156 h -0.6858 -4.8768 v 9.4869 q 0,0.8382 -0.5715,1.4097 -0.5334,0.5715 -1.4097,0.5715 -0.8382,0 -1.409699,-0.5715 -0.5715,-0.5715 -0.5715,-1.4097 v -25.7937 q 0,-0.8763 0.5715,-1.4097 0.571499,-0.5715 1.409699,-0.5715 h 6.858 q 2.8194,0 5.0292,1.1811 2.2479,1.1811 3.4671,3.3147 1.2573,2.1336 1.2573,4.8768 0,2.7051 -1.3716,4.8006 -1.3716,2.0955 -3.7338,3.1623 z m -10.4775,-12.0777 q 2.5908,0 4.2672,-1.4478 1.6764,-1.4859 1.6764,-3.81 0,-2.5146 -1.6764,-4.1148 -1.6764,-1.6002 -4.2672,-1.6002 h -4.8768 v 10.9728 z" style="font-style:normal;font-variant:normal;font-weight:bold;font-stretch:normal;font-size:38.1px;font-family:Comfortaa;-inkscape-font-specification:'Comfortaa Bold';fill:#d52b1e;fill-opacity:1;stroke-width:0.264583" id="path15"></path>
      <path d="m 105.97758,256.44435 q 0.5334,0.5715 0.5334,1.3335 0,0.6858 -0.4953,1.143 -0.4572,0.4572 -1.2192,0.4572 -0.9144,0 -1.3716,-0.6096 l -6.057901,-7.239 -5.7531,7.239 q -0.5715,0.6096 -1.3716,0.6096 -0.761999,0 -1.219199,-0.4572 -0.4191,-0.4572 -0.4191,-1.143 0,-0.762 0.5334,-1.4097 l 5.905499,-7.3914 -6.286499,-7.4295 q -0.5715,-0.6858 -0.5715,-1.4478 0,-0.6477 0.4191,-1.1049 0.4572,-0.4572 1.257299,-0.4572 0.9144,0 1.4478,0.6477 l 6.2484,7.4676 5.600701,-7.4676 q 0.4953,-0.6477 1.4097,-0.6477 0.762,0 1.1811,0.4953 0.4572,0.4572 0.4572,1.143 0,0.8382 -0.5334,1.524 l -5.753101,7.5057 z" style="font-style:normal;font-variant:normal;font-weight:bold;font-stretch:normal;font-size:38.1px;font-family:Comfortaa;-inkscape-font-specification:'Comfortaa Bold';fill:#d52b1e;fill-opacity:1;stroke-width:0.264583" id="path17"></path>
      <path d="m 127.69448,229.62195 q 0.8001,0 1.2954,0.5334 0.5334,0.4953 0.5334,1.2954 0,0.8001 -0.5334,1.3335 -0.4953,0.4953 -1.2954,0.4953 h -8.1915 v 24.1173 q 0,0.8382 -0.5715,1.4097 -0.5715,0.5715 -1.4097,0.5715 -0.8382,0 -1.4097,-0.5715 -0.5715,-0.5715 -0.5715,-1.4097 v -24.1173 h -8.2296 q -0.8001,0 -1.3335,-0.4953 -0.4953,-0.5334 -0.4953,-1.3335 0,-0.8001 0.4953,-1.2954 0.5334,-0.5334 1.3335,-0.5334 z" style="font-style:normal;font-variant:normal;font-weight:bold;font-stretch:normal;font-size:38.1px;font-family:Comfortaa;-inkscape-font-specification:'Comfortaa Bold';fill:#d52b1e;fill-opacity:1;stroke-width:0.264583" id="path19"></path>
      <path d="m 144.0012,256.44435 q 0.5334,0.5715 0.5334,1.3335 0,0.6858 -0.4953,1.143 -0.4572,0.4572 -1.2192,0.4572 -0.9144,0 -1.3716,-0.6096 l -6.0579,-7.239 -5.7531,7.239 q -0.5715,0.6096 -1.3716,0.6096 -0.762,0 -1.2192,-0.4572 -0.4191,-0.4572 -0.4191,-1.143 0,-0.762 0.5334,-1.4097 l 5.9055,-7.3914 -6.2865,-7.4295 q -0.5715,-0.6858 -0.5715,-1.4478 0,-0.6477 0.4191,-1.1049 0.4572,-0.4572 1.2573,-0.4572 0.9144,0 1.4478,0.6477 l 6.2484,7.4676 5.6007,-7.4676 q 0.4953,-0.6477 1.4097,-0.6477 0.762,0 1.1811,0.4953 0.4572,0.4572 0.4572,1.143 0,0.8382 -0.5334,1.524 l -5.7531,7.5057 z" style="font-style:normal;font-variant:normal;font-weight:bold;font-stretch:normal;font-size:38.1px;font-family:Comfortaa;-inkscape-font-specification:'Comfortaa Bold';fill:#d52b1e;fill-opacity:1;stroke-width:0.264583" id="path21"></path>
    </g>
    <g id="g4764" transform="matrix(0.22913589,-0.13229166,0.13229166,0.22913589,-8.2941857,236.99364)">
      <path id="path4744" style="fill:none;stroke:#d52b1e;stroke-width:15.1181;stroke-linecap:round;stroke-linejoin:round;stroke-miterlimit:10;stroke-dasharray:none;stroke-opacity:1" d="M 226.3858,98 169.6929,-0.195267 H 56.307098 L -0.385803,98 56.307098,196.19527 H 169.6929 Z"></path>
      <path id="path4746" style="fill:none;stroke:#d52b1e;stroke-width:15.1181;stroke-linecap:round;stroke-linejoin:round;stroke-miterlimit:10;stroke-dasharray:none;stroke-opacity:1" d="M 226.3858,98 H -0.385803"></path>
      <path id="path4748" style="fill:none;stroke:#d52b1e;stroke-width:15.1181;stroke-linecap:round;stroke-linejoin:round;stroke-miterlimit:10;stroke-dasharray:none;stroke-opacity:1" d="M 169.6929,-0.195267 56.307098,196.19527"></path>
      <path id="path4750" style="fill:none;stroke:#d52b1e;stroke-width:15.1181;stroke-linecap:round;stroke-linejoin:round;stroke-miterlimit:10;stroke-dasharray:none;stroke-opacity:1" d="M 56.307098,-0.195267 169.6929,196.19527"></path>
    </g>
  </g>
</svg>
